<svg width="36" height="12" viewBox="0 0 36 12" fill="none" xmlns="http://www.w3.org/2000/svg">
<path d="M6.846 8.83H2.59L1.806 11H0.462L3.99 1.298H5.46L8.974 11H7.63L6.846 8.83ZM6.482 7.794L4.718 2.866L2.954 7.794H6.482ZM11.7856 0.64V11H10.5116V0.64H11.7856ZM20.7609 3.328V11H19.4869V9.866C19.2442 10.258 18.9036 10.566 18.4649 10.79C18.0356 11.0047 17.5596 11.112 17.0369 11.112C16.4396 11.112 15.9029 10.9907 15.4269 10.748C14.9509 10.496 14.5729 10.1227 14.2929 9.628C14.0222 9.13333 13.8869 8.53133 13.8869 7.822V3.328H15.1469V7.654C15.1469 8.41 15.3382 8.99333 15.7209 9.404C16.1036 9.80533 16.6262 10.006 17.2889 10.006C17.9702 10.006 18.5069 9.796 18.8989 9.376C19.2909 8.956 19.4869 8.34467 19.4869 7.542V3.328H20.7609ZM24.186 4.574C24.41 4.13533 24.7273 3.79467 25.138 3.552C25.558 3.30933 26.0667 3.188 26.664 3.188V4.504H26.328C24.9 4.504 24.186 5.27867 24.186 6.828V11H22.912V3.328H24.186V4.574ZM27.6586 7.136C27.6586 6.352 27.8173 5.666 28.1346 5.078C28.452 4.48067 28.886 4.01867 29.4366 3.692C29.9966 3.36533 30.6173 3.202 31.2986 3.202C31.9706 3.202 32.554 3.34667 33.0486 3.636C33.5433 3.92533 33.912 4.28933 34.1546 4.728V3.328H35.4426V11H34.1546V9.572C33.9026 10.02 33.5246 10.3933 33.0206 10.692C32.526 10.9813 31.9473 11.126 31.2846 11.126C30.6033 11.126 29.9873 10.958 29.4366 10.622C28.886 10.286 28.452 9.81467 28.1346 9.208C27.8173 8.60133 27.6586 7.91067 27.6586 7.136ZM34.1546 7.15C34.1546 6.57133 34.038 6.06733 33.8046 5.638C33.5713 5.20867 33.254 4.882 32.8526 4.658C32.4606 4.42467 32.0266 4.308 31.5506 4.308C31.0746 4.308 30.6406 4.42 30.2486 4.644C29.8566 4.868 29.544 5.19467 29.3106 5.624C29.0773 6.05333 28.9606 6.55733 28.9606 7.136C28.9606 7.724 29.0773 8.23733 29.3106 8.676C29.544 9.10533 29.8566 9.43667 30.2486 9.67C30.6406 9.894 31.0746 10.006 31.5506 10.006C32.0266 10.006 32.4606 9.894 32.8526 9.67C33.254 9.43667 33.5713 9.10533 33.8046 8.676C34.038 8.23733 34.1546 7.72867 34.1546 7.15Z" fill="#474646"/>
</svg>
