<svg width="114" height="16" viewBox="0 0 114 16" fill="none" xmlns="http://www.w3.org/2000/svg">
<path d="M0.602 7.114C0.602 6.162 0.816667 5.308 1.246 4.552C1.67533 3.78667 2.25867 3.18933 2.996 2.76C3.74267 2.33067 4.56867 2.116 5.474 2.116C6.538 2.116 7.46667 2.37267 8.26 2.886C9.05333 3.39933 9.632 4.12733 9.996 5.07H8.47C8.19933 4.482 7.80733 4.02933 7.294 3.712C6.79 3.39467 6.18333 3.236 5.474 3.236C4.79267 3.236 4.18133 3.39467 3.64 3.712C3.09867 4.02933 2.674 4.482 2.366 5.07C2.058 5.64867 1.904 6.33 1.904 7.114C1.904 7.88867 2.058 8.57 2.366 9.158C2.674 9.73667 3.09867 10.1847 3.64 10.502C4.18133 10.8193 4.79267 10.978 5.474 10.978C6.18333 10.978 6.79 10.824 7.294 10.516C7.80733 10.1987 8.19933 9.746 8.47 9.158H9.996C9.632 10.0913 9.05333 10.8147 8.26 11.328C7.46667 11.832 6.538 12.084 5.474 12.084C4.56867 12.084 3.74267 11.874 2.996 11.454C2.25867 11.0247 1.67533 10.432 1.246 9.676C0.816667 8.92 0.602 8.066 0.602 7.114ZM11.4165 8.136C11.4165 7.352 11.5751 6.666 11.8925 6.078C12.2098 5.48067 12.6438 5.01867 13.1945 4.692C13.7545 4.36533 14.3751 4.202 15.0565 4.202C15.7285 4.202 16.3118 4.34667 16.8065 4.636C17.3011 4.92533 17.6698 5.28933 17.9125 5.728V4.328H19.2005V12H17.9125V10.572C17.6605 11.02 17.2825 11.3933 16.7785 11.692C16.2838 11.9813 15.7051 12.126 15.0425 12.126C14.3611 12.126 13.7451 11.958 13.1945 11.622C12.6438 11.286 12.2098 10.8147 11.8925 10.208C11.5751 9.60133 11.4165 8.91067 11.4165 8.136ZM17.9125 8.15C17.9125 7.57133 17.7958 7.06733 17.5625 6.638C17.3291 6.20867 17.0118 5.882 16.6105 5.658C16.2185 5.42467 15.7845 5.308 15.3085 5.308C14.8325 5.308 14.3985 5.42 14.0065 5.644C13.6145 5.868 13.3018 6.19467 13.0685 6.624C12.8351 7.05333 12.7185 7.55733 12.7185 8.136C12.7185 8.724 12.8351 9.23733 13.0685 9.676C13.3018 10.1053 13.6145 10.4367 14.0065 10.67C14.3985 10.894 14.8325 11.006 15.3085 11.006C15.7845 11.006 16.2185 10.894 16.6105 10.67C17.0118 10.4367 17.3291 10.1053 17.5625 9.676C17.7958 9.23733 17.9125 8.72867 17.9125 8.15ZM24.0694 12.126C23.4814 12.126 22.9541 12.028 22.4874 11.832C22.0207 11.6267 21.6521 11.3467 21.3814 10.992C21.1107 10.628 20.9614 10.2127 20.9334 9.746H22.2494C22.2867 10.1287 22.4641 10.4413 22.7814 10.684C23.1081 10.9267 23.5327 11.048 24.0554 11.048C24.5407 11.048 24.9234 10.9407 25.2034 10.726C25.4834 10.5113 25.6234 10.2407 25.6234 9.914C25.6234 9.578 25.4741 9.33067 25.1754 9.172C24.8767 9.004 24.4147 8.84067 23.7894 8.682C23.2201 8.53267 22.7534 8.38333 22.3894 8.234C22.0347 8.07533 21.7267 7.84667 21.4654 7.548C21.2134 7.24 21.0874 6.83867 21.0874 6.344C21.0874 5.952 21.2041 5.59267 21.4374 5.266C21.6707 4.93933 22.0021 4.68267 22.4314 4.496C22.8607 4.3 23.3507 4.202 23.9014 4.202C24.7507 4.202 25.4367 4.41667 25.9594 4.846C26.4821 5.27533 26.7621 5.86333 26.7994 6.61H25.5254C25.4974 6.20867 25.3341 5.88667 25.0354 5.644C24.7461 5.40133 24.3541 5.28 23.8594 5.28C23.4021 5.28 23.0381 5.378 22.7674 5.574C22.4967 5.77 22.3614 6.02667 22.3614 6.344C22.3614 6.596 22.4407 6.806 22.5994 6.974C22.7674 7.13267 22.9727 7.26333 23.2154 7.366C23.4674 7.45933 23.8127 7.56667 24.2514 7.688C24.8021 7.83733 25.2501 7.98667 25.5954 8.136C25.9407 8.276 26.2347 8.49067 26.4774 8.78C26.7294 9.06933 26.8601 9.44733 26.8694 9.914C26.8694 10.334 26.7527 10.712 26.5194 11.048C26.2861 11.384 25.9547 11.65 25.5254 11.846C25.1054 12.0327 24.6201 12.126 24.0694 12.126ZM28.1918 8.136C28.1918 7.352 28.3505 6.666 28.6678 6.078C28.9852 5.48067 29.4192 5.01867 29.9698 4.692C30.5298 4.36533 31.1505 4.202 31.8318 4.202C32.5038 4.202 33.0872 4.34667 33.5818 4.636C34.0765 4.92533 34.4452 5.28933 34.6878 5.728V4.328H35.9758V12H34.6878V10.572C34.4358 11.02 34.0578 11.3933 33.5538 11.692C33.0592 11.9813 32.4805 12.126 31.8178 12.126C31.1365 12.126 30.5205 11.958 29.9698 11.622C29.4192 11.286 28.9852 10.8147 28.6678 10.208C28.3505 9.60133 28.1918 8.91067 28.1918 8.136ZM34.6878 8.15C34.6878 7.57133 34.5712 7.06733 34.3378 6.638C34.1045 6.20867 33.7872 5.882 33.3858 5.658C32.9938 5.42467 32.5598 5.308 32.0838 5.308C31.6078 5.308 31.1738 5.42 30.7818 5.644C30.3898 5.868 30.0772 6.19467 29.8438 6.624C29.6105 7.05333 29.4938 7.55733 29.4938 8.136C29.4938 8.724 29.6105 9.23733 29.8438 9.676C30.0772 10.1053 30.3898 10.4367 30.7818 10.67C31.1738 10.894 31.6078 11.006 32.0838 11.006C32.5598 11.006 32.9938 10.894 33.3858 10.67C33.7872 10.4367 34.1045 10.1053 34.3378 9.676C34.5712 9.23733 34.6878 8.72867 34.6878 8.15ZM41.3852 8.136C41.3852 7.352 41.5439 6.666 41.8612 6.078C42.1785 5.48067 42.6125 5.01867 43.1632 4.692C43.7232 4.36533 44.3485 4.202 45.0392 4.202C45.6365 4.202 46.1919 4.342 46.7052 4.622C47.2185 4.89267 47.6105 5.252 47.8812 5.7V1.64H49.1692V12H47.8812V10.558C47.6292 11.0153 47.2559 11.3933 46.7612 11.692C46.2665 11.9813 45.6879 12.126 45.0252 12.126C44.3439 12.126 43.7232 11.958 43.1632 11.622C42.6125 11.286 42.1785 10.8147 41.8612 10.208C41.5439 9.60133 41.3852 8.91067 41.3852 8.136ZM47.8812 8.15C47.8812 7.57133 47.7645 7.06733 47.5312 6.638C47.2979 6.20867 46.9805 5.882 46.5792 5.658C46.1872 5.42467 45.7532 5.308 45.2772 5.308C44.8012 5.308 44.3672 5.42 43.9752 5.644C43.5832 5.868 43.2705 6.19467 43.0372 6.624C42.8039 7.05333 42.6872 7.55733 42.6872 8.136C42.6872 8.724 42.8039 9.23733 43.0372 9.676C43.2705 10.1053 43.5832 10.4367 43.9752 10.67C44.3672 10.894 44.8012 11.006 45.2772 11.006C45.7532 11.006 46.1872 10.894 46.5792 10.67C46.9805 10.4367 47.2979 10.1053 47.5312 9.676C47.7645 9.23733 47.8812 8.72867 47.8812 8.15ZM54.6681 12.126C53.9495 12.126 53.2961 11.9627 52.7081 11.636C52.1295 11.3093 51.6721 10.8473 51.3361 10.25C51.0095 9.64333 50.8461 8.94333 50.8461 8.15C50.8461 7.366 51.0141 6.67533 51.3501 6.078C51.6955 5.47133 52.1621 5.00933 52.7501 4.692C53.3381 4.36533 53.9961 4.202 54.7241 4.202C55.4521 4.202 56.1101 4.36533 56.6981 4.692C57.2861 5.00933 57.7481 5.46667 58.0841 6.064C58.4295 6.66133 58.6021 7.35667 58.6021 8.15C58.6021 8.94333 58.4248 9.64333 58.0701 10.25C57.7248 10.8473 57.2535 11.3093 56.6561 11.636C56.0588 11.9627 55.3961 12.126 54.6681 12.126ZM54.6681 11.006C55.1255 11.006 55.5548 10.8987 55.9561 10.684C56.3575 10.4693 56.6795 10.1473 56.9221 9.718C57.1741 9.28867 57.3001 8.766 57.3001 8.15C57.3001 7.534 57.1788 7.01133 56.9361 6.582C56.6935 6.15267 56.3761 5.83533 55.9841 5.63C55.5921 5.41533 55.1675 5.308 54.7101 5.308C54.2435 5.308 53.8141 5.41533 53.4221 5.63C53.0395 5.83533 52.7315 6.15267 52.4981 6.582C52.2648 7.01133 52.1481 7.534 52.1481 8.15C52.1481 8.77533 52.2601 9.30267 52.4841 9.732C52.7175 10.1613 53.0255 10.4833 53.4081 10.698C53.7908 10.9033 54.2108 11.006 54.6681 11.006ZM63.5336 7.114C63.5336 6.162 63.7483 5.308 64.1776 4.552C64.607 3.78667 65.1903 3.18933 65.9276 2.76C66.6743 2.33067 67.5003 2.116 68.4056 2.116C69.4696 2.116 70.3983 2.37267 71.1916 2.886C71.985 3.39933 72.5636 4.12733 72.9276 5.07H71.4016C71.131 4.482 70.739 4.02933 70.2256 3.712C69.7216 3.39467 69.115 3.236 68.4056 3.236C67.7243 3.236 67.113 3.39467 66.5716 3.712C66.0303 4.02933 65.6056 4.482 65.2976 5.07C64.9896 5.64867 64.8356 6.33 64.8356 7.114C64.8356 7.88867 64.9896 8.57 65.2976 9.158C65.6056 9.73667 66.0303 10.1847 66.5716 10.502C67.113 10.8193 67.7243 10.978 68.4056 10.978C69.115 10.978 69.7216 10.824 70.2256 10.516C70.739 10.1987 71.131 9.746 71.4016 9.158H72.9276C72.5636 10.0913 71.985 10.8147 71.1916 11.328C70.3983 11.832 69.4696 12.084 68.4056 12.084C67.5003 12.084 66.6743 11.874 65.9276 11.454C65.1903 11.0247 64.607 10.432 64.1776 9.676C63.7483 8.92 63.5336 8.066 63.5336 7.114ZM78.1701 12.126C77.4514 12.126 76.7981 11.9627 76.2101 11.636C75.6314 11.3093 75.1741 10.8473 74.8381 10.25C74.5114 9.64333 74.3481 8.94333 74.3481 8.15C74.3481 7.366 74.5161 6.67533 74.8521 6.078C75.1974 5.47133 75.6641 5.00933 76.2521 4.692C76.8401 4.36533 77.4981 4.202 78.2261 4.202C78.9541 4.202 79.6121 4.36533 80.2001 4.692C80.7881 5.00933 81.2501 5.46667 81.5861 6.064C81.9314 6.66133 82.1041 7.35667 82.1041 8.15C82.1041 8.94333 81.9268 9.64333 81.5721 10.25C81.2268 10.8473 80.7554 11.3093 80.1581 11.636C79.5608 11.9627 78.8981 12.126 78.1701 12.126ZM78.1701 11.006C78.6274 11.006 79.0568 10.8987 79.4581 10.684C79.8594 10.4693 80.1814 10.1473 80.4241 9.718C80.6761 9.28867 80.8021 8.766 80.8021 8.15C80.8021 7.534 80.6808 7.01133 80.4381 6.582C80.1954 6.15267 79.8781 5.83533 79.4861 5.63C79.0941 5.41533 78.6694 5.308 78.2121 5.308C77.7454 5.308 77.3161 5.41533 76.9241 5.63C76.5414 5.83533 76.2334 6.15267 76.0001 6.582C75.7668 7.01133 75.6501 7.534 75.6501 8.15C75.6501 8.77533 75.7621 9.30267 75.9861 9.732C76.2194 10.1613 76.5274 10.4833 76.9101 10.698C77.2928 10.9033 77.7128 11.006 78.1701 11.006ZM79.5981 2.06L76.6161 3.656V2.704L79.5981 0.954V2.06ZM83.3032 8.136C83.3032 7.352 83.4618 6.666 83.7792 6.078C84.0965 5.48067 84.5305 5.01867 85.0812 4.692C85.6412 4.36533 86.2665 4.202 86.9572 4.202C87.5545 4.202 88.1098 4.342 88.6232 4.622C89.1365 4.89267 89.5285 5.252 89.7992 5.7V1.64H91.0872V12H89.7992V10.558C89.5472 11.0153 89.1738 11.3933 88.6792 11.692C88.1845 11.9813 87.6058 12.126 86.9432 12.126C86.2618 12.126 85.6412 11.958 85.0812 11.622C84.5305 11.286 84.0965 10.8147 83.7792 10.208C83.4618 9.60133 83.3032 8.91067 83.3032 8.136ZM89.7992 8.15C89.7992 7.57133 89.6825 7.06733 89.4492 6.638C89.2158 6.20867 88.8985 5.882 88.4972 5.658C88.1052 5.42467 87.6712 5.308 87.1952 5.308C86.7192 5.308 86.2852 5.42 85.8932 5.644C85.5012 5.868 85.1885 6.19467 84.9552 6.624C84.7218 7.05333 84.6052 7.55733 84.6052 8.136C84.6052 8.724 84.7218 9.23733 84.9552 9.676C85.1885 10.1053 85.5012 10.4367 85.8932 10.67C86.2852 10.894 86.7192 11.006 87.1952 11.006C87.6712 11.006 88.1052 10.894 88.4972 10.67C88.8985 10.4367 89.2158 10.1053 89.4492 9.676C89.6825 9.23733 89.7992 8.72867 89.7992 8.15ZM93.8981 3.082C93.6554 3.082 93.4501 2.998 93.2821 2.83C93.1141 2.662 93.0301 2.45667 93.0301 2.214C93.0301 1.97133 93.1141 1.766 93.2821 1.598C93.4501 1.43 93.6554 1.346 93.8981 1.346C94.1314 1.346 94.3274 1.43 94.4861 1.598C94.6541 1.766 94.7381 1.97133 94.7381 2.214C94.7381 2.45667 94.6541 2.662 94.4861 2.83C94.3274 2.998 94.1314 3.082 93.8981 3.082ZM94.5141 4.328V12H93.2401V4.328H94.5141ZM99.8494 4.202C100.512 4.202 101.091 4.34667 101.585 4.636C102.089 4.92533 102.463 5.28933 102.705 5.728V4.328H103.993V12.168C103.993 12.868 103.844 13.4887 103.545 14.03C103.247 14.5807 102.817 15.01 102.257 15.318C101.707 15.626 101.063 15.78 100.325 15.78C99.3174 15.78 98.4774 15.542 97.8054 15.066C97.1334 14.59 96.7368 13.9413 96.6154 13.12H97.8754C98.0154 13.5867 98.3048 13.96 98.7434 14.24C99.1821 14.5293 99.7094 14.674 100.325 14.674C101.025 14.674 101.595 14.4547 102.033 14.016C102.481 13.5773 102.705 12.9613 102.705 12.168V10.558C102.453 11.006 102.08 11.3793 101.585 11.678C101.091 11.9767 100.512 12.126 99.8494 12.126C99.1681 12.126 98.5474 11.958 97.9874 11.622C97.4368 11.286 97.0028 10.8147 96.6854 10.208C96.3681 9.60133 96.2094 8.91067 96.2094 8.136C96.2094 7.352 96.3681 6.666 96.6854 6.078C97.0028 5.48067 97.4368 5.01867 97.9874 4.692C98.5474 4.36533 99.1681 4.202 99.8494 4.202ZM102.705 8.15C102.705 7.57133 102.589 7.06733 102.355 6.638C102.122 6.20867 101.805 5.882 101.403 5.658C101.011 5.42467 100.577 5.308 100.101 5.308C99.6254 5.308 99.1914 5.42 98.7994 5.644C98.4074 5.868 98.0948 6.19467 97.8614 6.624C97.6281 7.05333 97.5114 7.55733 97.5114 8.136C97.5114 8.724 97.6281 9.23733 97.8614 9.676C98.0948 10.1053 98.4074 10.4367 98.7994 10.67C99.1914 10.894 99.6254 11.006 100.101 11.006C100.577 11.006 101.011 10.894 101.403 10.67C101.805 10.4367 102.122 10.1053 102.355 9.676C102.589 9.23733 102.705 8.72867 102.705 8.15ZM109.492 12.126C108.774 12.126 108.12 11.9627 107.532 11.636C106.954 11.3093 106.496 10.8473 106.16 10.25C105.834 9.64333 105.67 8.94333 105.67 8.15C105.67 7.366 105.838 6.67533 106.174 6.078C106.52 5.47133 106.986 5.00933 107.574 4.692C108.162 4.36533 108.82 4.202 109.548 4.202C110.276 4.202 110.934 4.36533 111.522 4.692C112.11 5.00933 112.572 5.46667 112.908 6.064C113.254 6.66133 113.426 7.35667 113.426 8.15C113.426 8.94333 113.249 9.64333 112.894 10.25C112.549 10.8473 112.078 11.3093 111.48 11.636C110.883 11.9627 110.22 12.126 109.492 12.126ZM109.492 11.006C109.95 11.006 110.379 10.8987 110.78 10.684C111.182 10.4693 111.504 10.1473 111.746 9.718C111.998 9.28867 112.124 8.766 112.124 8.15C112.124 7.534 112.003 7.01133 111.76 6.582C111.518 6.15267 111.2 5.83533 110.808 5.63C110.416 5.41533 109.992 5.308 109.534 5.308C109.068 5.308 108.638 5.41533 108.246 5.63C107.864 5.83533 107.556 6.15267 107.322 6.582C107.089 7.01133 106.972 7.534 106.972 8.15C106.972 8.77533 107.084 9.30267 107.308 9.732C107.542 10.1613 107.85 10.4833 108.232 10.698C108.615 10.9033 109.035 11.006 109.492 11.006Z" fill="#474646"/>
</svg>
